<svg xmlns="http://www.w3.org/2000/svg" width="32" height="32" viewBox="0 0 32 32">
  <!-- hand-drawn flower doodle -->
  <!-- stem -->
  <path d="M15 28 C15.5 24, 14 21, 16 18" fill="none" stroke="#8FB89A" stroke-width="1.5" stroke-linecap="round"/>
  <!-- leaf -->
  <path d="M15 23 C12 21, 11 22, 10 24 C11 22.5, 12.5 22.5, 15 23" fill="none" stroke="#8FB89A" stroke-width="1.2" stroke-linecap="round"/>
  <!-- petals - sketchy overlapping lines -->
  <path d="M16 17 C14 14, 11 12, 12 9 C13 7, 16 8, 16 11" fill="none" stroke="#8C6050" stroke-width="1.3" stroke-linecap="round"/>
  <path d="M16 11 C17 8, 20 7, 21 9 C22 12, 19 14, 16 17" fill="none" stroke="#8C6050" stroke-width="1.3" stroke-linecap="round"/>
  <path d="M16 17 C19 15, 22 14, 23 11 C24 13, 22 16, 19 17" fill="none" stroke="#8C6050" stroke-width="1.3" stroke-linecap="round"/>
  <path d="M19 17 C22 18, 24 20, 22 22 C20 20, 18 18, 16 17" fill="none" stroke="#8C6050" stroke-width="1.3" stroke-linecap="round"/>
  <path d="M16 17 C14 19, 12 21, 10 20 C9 18, 11 16, 13 17" fill="none" stroke="#8C6050" stroke-width="1.3" stroke-linecap="round"/>
  <path d="M13 17 C10 15, 8 13, 10 11 C12 13, 14 15, 16 17" fill="none" stroke="#8C6050" stroke-width="1.3" stroke-linecap="round"/>
  <!-- center dot -->
  <circle cx="16" cy="16" r="2" fill="none" stroke="#C9A96E" stroke-width="1.3"/>
  <circle cx="16" cy="16" r="0.8" fill="#C9A96E"/>
</svg>
